<svg width="21" height="21" viewBox="0 0 21 21" fill="none" xmlns="http://www.w3.org/2000/svg">
<path d="M10.5 0C4.71017 0 0 4.71017 0 10.5C0 16.2898 4.71017 21 10.5 21C16.2898 21 21 16.2898 21 10.5C21 4.71017 16.2898 0 10.5 0ZM10.5 19.25C5.67532 19.25 1.75 15.3247 1.75 10.5C1.75 5.67532 5.67532 1.75 10.5 1.75C15.3247 1.75 19.25 5.67532 19.25 10.5C19.25 15.3247 15.3247 19.25 10.5 19.25Z" fill="#515151"/>
<path d="M14.875 5.25C14.392 5.25 14 5.642 14 6.125V9.625H11.375V6.125C11.375 5.642 10.983 5.25 10.5 5.25C10.017 5.25 9.625 5.642 9.625 6.125V9.625H7V6.125C7 5.642 6.608 5.25 6.125 5.25C5.642 5.25 5.25 5.642 5.25 6.125V14.875C5.25 15.358 5.642 15.75 6.125 15.75C6.608 15.75 7 15.358 7 14.875V11.375H9.625V14.875C9.625 15.358 10.017 15.75 10.5 15.75C10.983 15.75 11.375 15.358 11.375 14.875V11.375H14V14.875C14 15.358 14.392 15.75 14.875 15.75C15.358 15.75 15.75 15.358 15.75 14.875V6.125C15.75 5.642 15.358 5.25 14.875 5.25Z" fill="#515151"/>
</svg>
