<svg width="25" height="31" viewBox="0 0 25 31" fill="none" xmlns="http://www.w3.org/2000/svg">
<path d="M15.918 6.39375H9.16016V11.47H15.918V6.39375Z" fill="#515151"/>
<path d="M15.3125 5.21188H9.78516C9.43359 5.21188 9.10156 5.05688 8.90625 4.82438C8.73047 4.61125 8.67188 4.35938 8.73047 4.1075L9.375 1.25938C9.47266 0.813754 9.92187 0.503754 10.4297 0.503754H14.6875C15.1953 0.503754 15.6445 0.813754 15.7422 1.25938L16.3672 4.1075C16.4258 4.35938 16.3672 4.61125 16.1914 4.82438C15.9766 5.07625 15.6445 5.21188 15.3125 5.21188Z" fill="#515151"/>
<path d="M10.7031 4.34001C10.4297 4.34001 10.2148 4.55314 10.2148 4.82439V6.39376C10.2148 6.66501 10.4297 6.87813 10.7031 6.87813C10.9766 6.87813 11.1914 6.66501 11.1914 6.39376V4.82439C11.1914 4.57251 10.9766 4.34001 10.7031 4.34001Z" fill="#515151"/>
<path d="M14.3945 4.34001C14.1211 4.34001 13.9062 4.55314 13.9062 4.82439V6.39376C13.9062 6.66501 14.1211 6.87813 14.3945 6.87813C14.668 6.87813 14.8828 6.66501 14.8828 6.39376V4.82439C14.8828 4.57251 14.6484 4.34001 14.3945 4.34001Z" fill="#515151"/>
<path d="M19.4727 17.8831C18.7305 17.7475 17.9297 18.1544 17.4023 18.8713H7.75391C7.1875 18.1156 6.32813 17.7088 5.50781 17.8831C4.21875 18.1544 3.76953 19.7625 3.92578 20.8088C4.02344 21.5063 4.41406 21.9713 4.82422 22.475C5.42969 23.2113 6.17188 23.8119 7.05078 24.2575C7.10938 24.2963 7.16797 24.2963 7.22656 24.2963H7.2461H17.7734H17.8516C17.8906 24.2963 17.9297 24.2769 17.9492 24.2575C18.8281 23.7925 19.5703 23.1919 20.1758 22.475C20.5859 21.9906 20.957 21.5063 21.0742 20.8088C21.2305 19.7431 20.7422 18.0963 19.4727 17.8831Z" fill="#515151"/>
<path d="M15.918 12.245H9.16016V18.4837H15.918V12.245Z" fill="#515151"/>
<path d="M7.94923 18.4838H8.37892V6.41313C7.42189 6.47126 6.66017 7.53688 6.73829 8.75751C6.85548 10.85 6.66017 12.1481 6.40626 13.0006C6.3672 13.0975 6.30861 13.2913 6.25001 13.5625C6.09376 14.1438 5.99611 14.6088 5.97658 14.7831C5.80079 15.7906 5.95704 17.1081 6.01564 17.4569C6.69923 17.4956 7.42189 17.8638 7.94923 18.4838Z" fill="#515151"/>
<path d="M17.207 18.4838C17.793 17.7863 18.5938 17.3988 19.3555 17.4763C19.5313 16.9144 19.0234 15.6163 19.0039 15.0738C19.0039 15.0738 19.0039 15.035 19.0039 14.9963C19.0039 14.88 18.9844 14.6475 18.9453 14.3763C18.9258 14.1825 18.8867 13.95 18.8281 13.6981C18.7891 13.5431 18.7695 13.4463 18.75 13.3881C18.5742 12.6325 18.457 11.2956 18.6133 8.79626C18.6914 7.51751 17.8906 6.41313 16.875 6.41313H16.7188V18.5031H17.207V18.4838Z" fill="#515151"/>
</svg>
